<?xml version="1.0" encoding="UTF-8" standalone="no"?>
<svg xmlns="http://www.w3.org/2000/svg"
     viewBox="0 0 208.37527 381.42886"
     height="381.42886"
     width="208.37527"
     fill="currentColor"
     version="1.1">
    <defs id="defs3728"/>
    <path d="M 77.62434,380.19735 C 31.84366,375.14173 7.79432,359.23918 1.76719,330.03705 0.3292,323.06983 0.20466,317.74695 0.19454,262.8203 c -0.007,-34.15018 0.30644,-59.65035 0.73158,-59.65035 0.40842,0 2.57467,1.30837 4.81389,2.9075 2.23921,1.59913 5.28088,3.48168 6.75924,4.18346 2.85285,1.35423 3.73158,3.44553 4.91012,11.68544 0.38977,2.72512 1.26064,4.74692 2.56568,5.95638 2.41651,2.23956 2.53016,5.31277 0.30123,8.14638 -0.92091,1.17076 -1.67073,2.63434 -1.66626,3.2524 0.0103,1.42937 4.39081,6.93509 8.99174,11.30152 1.98007,1.87914 3.5581,4.15491 3.5581,5.13135 0,0.96504 0.34925,1.97046 0.77611,2.23428 0.42687,0.26382 1.2294,1.88719 1.78341,3.6075 1.99901,6.20732 9.18371,16.9416 11.33941,16.9416 0.577,0 1.82495,0.98632 2.7732,2.19184 1.65916,2.10927 1.66956,2.28418 0.27601,4.64327 l -1.4481,2.45142 3.06829,2.68221 c 1.68756,1.47522 3.30792,3.51888 3.60081,4.54148 0.29288,1.02258 2.51783,3.89273 4.94432,6.3781 2.4265,2.48536 5.46048,6.30826 6.74219,8.49534 2.28202,3.89397 2.31831,4.16118 1.74886,12.87745 -0.31985,4.89552 -0.93196,10.51745 -1.36026,12.49317 -1.00121,4.61851 -0.12567,6.21812 4.67559,8.54238 2.94634,1.4263 4.93289,1.76929 8.95798,1.54664 l 5.17206,-0.28607 2.33134,3.76739 c 1.28224,2.07206 3.24565,5.46271 4.36315,7.53478 2.04334,3.78876 5.17499,8.50419 12.39003,18.6561 2.14653,3.02026 3.68488,5.70929 3.41856,5.97561 -0.83991,0.83991 -18.62782,0.34365 -29.08848,-0.81152 z m 43.11163,-6.66598 c -4.12778,-8.48903 -4.09674,-9.93978 0.22032,-10.29787 4.15826,-0.34492 4.05283,-2.03757 -0.30661,-4.92252 -3.32634,-2.20126 -3.42306,-2.39324 -2.94888,-5.8528 0.40395,-2.94708 0.21424,-3.72461 -1.07738,-4.41587 -3.30263,-1.76751 -3.99174,-8.61274 -1.19255,-11.84613 0.63995,-0.73921 0.93708,-1.93417 0.66029,-2.65547 -0.27679,-0.7213 -0.0745,-2.11261 0.44956,-3.0918 0.81067,-1.51476 0.57266,-2.24262 -1.59554,-4.8793 -5.04966,-6.14074 -4.877,-6.02916 -9.32975,-6.02916 -7.78115,0 -7.48019,0.78474 -7.47661,-19.4943 0.003,-16.33754 0.13854,-17.98311 1.69272,-20.53228 2.05212,-3.36587 5.81313,-5.04227 14.40009,-6.41859 3.5575,-0.57019 7.04234,-1.51321 7.74408,-2.09562 1.01672,-0.84379 1.27591,-3.1539 1.27591,-11.37196 0,-5.67217 0.33326,-10.51902 0.74059,-10.77076 1.0859,-0.67112 12.88991,13.4576 15.42709,18.46534 1.19619,2.36098 2.63636,6.12535 3.20038,8.36526 0.80257,3.18731 2.26667,5.38392 6.73548,10.1053 3.14049,3.31799 5.70998,6.60432 5.70998,7.30294 0,2.4413 2.60764,8.92158 5.00425,12.43614 2.91307,4.27192 12.44155,13.66494 17.48642,17.23783 2.88845,2.04566 3.98439,2.41067 5.23248,1.74271 1.88493,-1.00878 2.00489,-2.27523 0.38542,-4.06889 -0.65636,-0.72695 -1.97862,-5.24234 -2.93837,-10.0342 -1.62592,-8.11797 -1.99475,-8.97949 -5.405,-12.62533 -3.44194,-3.67971 -3.69522,-4.28292 -4.25132,-10.12446 -0.41997,-4.41166 -1.17652,-7.11617 -2.61082,-9.33317 -1.11072,-1.71685 -2.0171,-3.41218 -2.0142,-3.76739 0.003,-0.35522 1.13967,-1.29137 2.52613,-2.08035 3.62229,-2.06129 3.86403,-3.58329 1.11952,-7.04831 -4.51468,-5.69991 -8.94654,-13.28568 -9.93938,-17.01266 -1.16655,-4.37906 -2.96953,-5.9216 -4.9755,-4.25679 -1.04869,0.87034 -1.23402,1.95321 -0.81386,4.75506 0.29924,1.99545 0.3007,4.2623 0.003,5.03745 -0.45393,1.18291 -0.94639,0.94916 -3.06487,-1.45481 -5.72379,-6.49497 -11.57062,-16.67795 -9.57621,-16.67795 3.10755,0 22.26199,-3.76574 23.61535,-4.64275 2.39759,-1.55368 3.16033,-6.72434 2.49225,-16.89498 -0.90564,-13.78708 -4.04762,-17.81056 -13.90846,-17.81056 -4.38457,0 -5.06476,-0.20971 -5.06476,-1.5615 0,-0.85882 0.75347,-2.51938 1.67439,-3.69014 3.62237,-4.6051 1.91919,-9.207 -7.5066,-20.28239 -3.81355,-4.48097 -4.74538,-5.11303 -8.63966,-5.86038 -3.63651,-0.69789 -4.41125,-1.16364 -4.64166,-2.79045 -0.15211,-1.074 0.36847,-2.66549 1.15684,-3.53663 1.3311,-1.47085 1.3359,-1.73274 0.0673,-3.6689 -1.85614,-2.83282 -1.76733,-3.01919 1.32228,-2.77499 3.96192,0.31314 4.10211,-2.16544 0.31848,-5.63109 -2.08017,-1.90535 -3.00693,-3.47712 -3.00693,-5.0997 0,-1.82325 -1.2582,-3.50473 -5.65109,-7.55224 -7.97341,-7.34651 -7.76699,-7.45762 13.85532,-7.45762 24.19852,0 32.3038,1.80807 39.02162,8.70468 2.76684,2.84047 3.10701,3.56004 2.19979,4.65318 -1.61711,1.94849 -2.81557,1.60868 -7.24995,-2.05568 -4.41579,-3.64901 -5.45661,-3.96881 -6.97243,-2.14235 -0.79722,0.9606 -0.62693,1.71274 0.83567,3.69101 1.72396,2.33178 1.75348,2.60368 0.48015,4.42162 -3.35536,4.79044 -1.0057,11.24461 7.88439,21.65724 7.3489,8.60751 7.9124,9.02826 12.53965,9.36318 l 3.65594,0.2646 1.39001,5.52548 c 0.76451,3.03902 2.01091,6.77011 2.76979,8.29131 1.86247,3.73343 1.77433,4.13252 -1.13688,5.14737 -1.49599,0.52151 -2.70972,1.6466 -2.99273,2.77422 -0.77119,3.07267 1.18811,8.6253 4.07815,11.55745 3.70528,3.75927 6.91184,8.76619 8.16545,12.75005 0.57957,1.84184 2.22344,4.85575 3.65304,6.69759 l 2.59927,3.34879 -0.005,46.88308 -0.005,46.88308 -1.97904,5.86038 c -6.36826,18.85795 -17.25634,30.02433 -38.31136,39.29062 -9.24674,4.06948 -20.22914,7.28036 -31.60898,9.24139 -12.2701,2.11445 -11.60039,2.36544 -15.59186,-5.84326 z M 104.42528,268.68686 c -4.93439,-0.50294 -5.4524,-1.28266 -5.4524,-8.20713 0,-5.33667 0.27198,-6.43548 2.14346,-8.6596 2.72777,-3.24177 6.48807,-3.96676 12.71001,-2.45055 l 4.82068,1.17476 0.23998,8.15622 0.23998,8.15623 -2.93399,1.2259 c -2.86096,1.19538 -4.92675,1.30145 -11.76772,0.60417 z m -40.3865,-40.61028 c -0.95593,-1.03603 -2.67879,-3.76739 -3.82857,-6.06968 -4.45742,-8.92548 -8.26658,-15.82849 -9.83362,-17.82067 -0.89957,-1.1436 -1.63902,-2.4994 -1.64323,-3.01288 -0.004,-0.51348 -0.93428,-2.81729 -2.06682,-5.11958 -1.13253,-2.3023 -2.07094,-4.65639 -2.08534,-5.23132 -0.0144,-0.57493 -1.29931,-4.90743 -2.85535,-9.62777 -1.55604,-4.72035 -3.10649,-9.90104 -3.44546,-11.51265 -0.33896,-1.6116 -0.91428,-3.30693 -1.27848,-3.76739 -0.36418,-0.46046 -0.92231,-2.72089 -1.24027,-5.02318 -0.60238,-4.36179 -4.98159,-14.02718 -8.38278,-18.50172 -1.83044,-2.40808 -1.87332,-2.69409 -0.59554,-3.97188 1.27778,-1.27778 1.14113,-1.61843 -1.89776,-4.73053 -2.37192,-2.42908 -3.96182,-3.3536 -5.76717,-3.3536 -1.89558,0 -3.37933,-0.95232 -6.19578,-3.97669 -3.98496,-4.27911 -6.29494,-8.04876 -5.44997,-8.89373 0.28861,-0.28861 1.1693,-0.52474 1.95709,-0.52474 0.7878,0 1.85389,-0.50792 2.3691,-1.12872 1.19649,-1.44167 -0.2829,-2.72201 -6.89317,-5.96572 L 0,107.4369 0.46395,83.932301 c 0.25518,-12.92752 0.71598,-24.72899 1.02399,-26.22548 0.62977,-3.05972 1.95844,-3.4542 4.00762,-1.18988 1.75552,1.93982 1.76592,4.19583 0.0282,6.11596 -2.02413,2.23665 -0.87631,4.0738 2.54526,4.0738 1.90475,0 3.19879,0.50733 3.73416,1.46399 0.4506,0.80519 2.63557,2.44677 4.85548,3.64795 3.09409,1.67419 4.0362,2.65255 4.0362,4.19143 0,1.15093 1.69674,4.0923 3.97669,6.89376 4.12319,5.06632 4.55093,6.28151 3.13938,8.91903 -1.1502,2.14915 0.14877,5.21644 3.00038,7.08488 2.39604,1.569939 4.75421,1.240799 10.18596,-1.42172 1.59836,-0.78349 2.44429,-0.52119 5.57865,1.72973 2.03202,1.459299 3.93567,2.653259 4.23032,2.653259 0.69345,0 11.45607,8.58472 12.69417,10.1254 0.52011,0.64722 1.49556,3.4372 2.16765,6.19996 0.94655,3.8909 1.70124,5.25839 3.34805,6.06667 1.82622,0.89633 2.25542,1.89992 3.04335,7.11619 0.85462,5.65774 0.79601,6.23898 -0.85778,8.50632 -2.11423,2.89861 -1.30373,4.95809 2.11179,5.36605 2.46588,0.29454 2.60386,0.7038 1.34954,4.00291 -1.08946,2.86551 -0.33426,3.69555 4.88182,5.36562 3.38425,1.08356 3.91951,1.55583 3.79548,3.34879 -0.0795,1.14804 0.2455,3.35155 0.72203,4.8967 0.63723,2.06625 0.59228,3.32156 -0.16993,4.74578 -2.25443,4.21243 2.81797,17.5295 10.641,27.93686 1.52078,2.02316 2.76453,3.90686 2.76389,4.18599 -6.4e-4,0.27913 -4.80406,0.50751 -10.67427,0.50751 -10.17185,0 -10.85965,0.10965 -14.64514,2.33485 -6.76047,3.97397 -7.22878,6.12601 -5.09403,23.40898 0.54604,4.42073 -0.1946,4.96559 -2.8451,2.09299 z m 74.2894,-30.74497 c -1.0091,-0.63797 -1.04485,-0.99347 -0.18626,-1.85206 1.15034,-1.15034 3.55481,-0.1827 4.17589,1.68052 0.392,1.176 -2.22302,1.28843 -3.98963,0.17154 z M 1.46083,173.9096 c -1.39341,-2.69456 -1.62982,-4.23123 -0.6494,-4.22104 0.54816,0.006 1.84831,2.23381 3.29374,5.64456 0.93112,2.19712 -1.42906,0.92657 -2.64434,-1.42352 z m 119.8284,-72.66849 c -0.2973,-4.489469 -0.54249,-12.746919 -0.54487,-18.349879 -0.003,-5.60296 -0.23917,-10.79917 -0.52618,-11.54714 -0.28703,-0.74796 -2.07654,-2.18673 -3.97669,-3.19726 -4.92095,-2.61704 -17.79243,-2.67871 -22.71039,-0.10881 -4.88257,2.5514 -5.41533,4.2027 -5.42945,16.82832 -0.008,6.79607 -0.35041,11.25241 -0.89135,11.58672 -0.48345,0.29878 -3.96828,-2.41379 -7.74408,-6.02795 -17.01228,-16.28404 -24.60019,-21.69255 -43.28318,-30.85139 -13.54002,-6.63764 -19.41056,-9.09747 -23.86014,-9.9977 -4.69398,-0.94967 -7.11618,-2.28455 -7.11618,-3.92174 0,-0.87655 1.36353,-4.31567 3.03006,-7.64251 2.24416,-4.47994 4.90413,-7.90029 10.25568,-13.18738 7.75649,-7.66308 14.87613,-11.97492 26.8072,-16.2351704 5.66216,-2.02179 6.31008,-2.09708 7.64562,-0.88842 0.91042,0.82392 2.20862,1.13248 3.45186,0.82044 3.90742,-0.9807 18.27432,7.1598304 35.34768,20.0286104 7.33195,5.52633 9.94661,7.9984 15.94426,15.07468 2.26138,2.66808 7.53572,7.67495 11.72077,11.12636 6.81893,5.62359 13.88814,13.58112 13.88814,15.63332 0,0.42296 0.90744,1.95875 2.01654,3.41284 1.10909,1.4541 2.57877,3.93846 3.26594,5.52081 1.81971,4.19024 5.28567,7.47479 7.93727,7.52181 1.83069,0.0325 2.83383,0.94658 5.19861,4.73723 1.6116,2.58335 3.79395,5.74686 4.84966,7.03002 1.65584,2.012599 1.77192,2.569309 0.84512,4.053359 -0.85873,1.37504 -0.86592,2.0541 -0.0358,3.38336 0.57122,0.91467 1.03858,2.04488 1.03858,2.51159 -3e-5,0.54738 -6.49227,0.84856 -18.29212,0.84856 h -18.29207 z m 74.16898,6.16386 c -5.60946,-2.94963 -7.5104,-6.38963 -4.67613,-8.462099 2.30239,-1.68354 0.66235,-3.70425 -5.14271,-6.33639 -6.03303,-2.73551 -10.24313,-7.6126 -9.38947,-10.87701 0.3091,-1.18201 -0.13382,-2.20657 -1.3636,-3.15423 -1.00177,-0.77196 -4.64695,-4.36557 -8.10039,-7.98579 -8.64635,-9.0639 -19.63738,-17.90527 -39.45372,-31.73722 -9.31633,-6.50288 -40.88375,-27.40059 -41.39045,-27.40059 -0.30706,0 -2.3041,-1.24437 -4.43784,-2.7652704 -2.13376,-1.52088 -4.9156,-3.20814 -6.18186,-3.74944 -1.26626,-0.5413 -2.30229,-1.32507 -2.30229,-1.74172 0,-2.33261001 26.60579,-4.00748001 44.21359,-2.78332001 60.26195,4.18965001 86.43242,22.65151041 90.64867,63.94777041 0.91188,8.93149 0.46777,42.653979 -0.58415,44.356029 -0.85222,1.37891 -8.29067,0.55544 -11.83965,-1.31072 z"
          style="stroke-width:0.837198"/>
</svg>
